<?xml version="1.0" encoding="UTF-8"?>
<svg version="1.1" xmlns="http://www.w3.org/2000/svg" width="220" height="220">
<path d="M0 0 C6.34825303 2.7843215 10.85216049 6.2710918 14.6484375 12.0703125 C15.96918226 14.08607376 15.96918226 14.08607376 17.890625 15.828125 C20.48893725 18.50342428 22.40828854 21.47902824 24.375 24.625 C24.7663916 25.24528076 25.1577832 25.86556152 25.56103516 26.50463867 C26.34673897 27.75353667 27.12983044 29.00408238 27.91015625 30.25634766 C28.86630144 31.78609429 29.83815267 33.30600082 30.8125 34.82421875 C34.08282933 40.03221821 36.36605549 45.06620153 38 51 C38.66 51 39.32 51 40 51 C40.61875 52.4540625 40.61875 52.4540625 41.25 53.9375 C41.83247753 55.292035 42.41589594 56.6461656 43 58 C43.32484375 58.75667969 43.6496875 59.51335937 43.984375 60.29296875 C45.76704309 64.38624895 47.6862121 68.17721998 50 72 C51.06104743 74.31191527 52.03110879 76.64697849 53 79 C53.59941406 78.82984375 54.19882813 78.6596875 54.81640625 78.484375 C94.81041306 67.78896493 94.81041306 67.78896493 106 73 C106 74.98 106 76.96 106 79 C96.45557956 84.29598939 86.52846953 87.7264929 76.22998047 91.22900391 C68.30033819 93.96833471 68.30033819 93.96833471 61 98 C64.48652664 107.12375713 64.48652664 107.12375713 68.125 116.1875 C69.38576778 119.31918241 70.46891385 122.43706523 71.40625 125.6796875 C72.66852471 129.95257805 74.05295141 134.16748858 75.49926758 138.38110352 C90.90424771 183.3505897 90.90424771 183.3505897 85.984375 194.25 C85.65953125 194.8275 85.3346875 195.405 85 196 C77.88119415 196.94917411 72.8632912 193.83728134 67 190 C65.99880882 189.0011926 64.99856425 188.00143369 64 187 C63.01 186.67 62.02 186.34 61 186 C61 185.34 61 184.68 61 184 C60.278125 183.7525 59.55625 183.505 58.8125 183.25 C55.72393418 181.87730408 53.48988582 180.27646704 51 178 C51 177.34 51 176.68 51 176 C50.1028125 175.8453125 50.1028125 175.8453125 49.1875 175.6875 C46.68462276 174.90088144 45.78685245 173.86454169 44 172 C43.01 171.67 42.02 171.34 41 171 C39.66666667 169.66666667 38.33333333 168.33333333 37 167 C35.9275 166.29875 34.855 165.5975 33.75 164.875 C32.38875 163.946875 32.38875 163.946875 31 163 C31 162.34 31 161.68 31 161 C29.35 160.67 27.7 160.34 26 160 C26 159.34 26 158.68 26 158 C25.278125 157.731875 24.55625 157.46375 23.8125 157.1875 C21.00233617 156.00098638 18.51583443 154.72514361 16 153 C16 152.34 16 151.68 16 151 C15.45085937 150.91492188 14.90171875 150.82984375 14.3359375 150.7421875 C11.2520429 149.76235477 9.19134027 148.0874955 6.625 146.125 C2.88947692 143.27337534 -0.74116892 140.99750484 -5 139 C-5 138.34 -5 137.68 -5 137 C-6.65 136.67 -8.3 136.34 -10 136 C-10 135.34 -10 134.68 -10 134 C-10.804375 133.5978125 -10.804375 133.5978125 -11.625 133.1875 C-15.8125 131.09375 -15.8125 131.09375 -20 129 C-20 128.34 -20 127.68 -20 127 C-20.72703125 126.74347656 -21.4540625 126.48695313 -22.203125 126.22265625 C-25.13274195 124.94197175 -27.26369988 123.43571771 -29.75 121.4375 C-30.52859375 120.81746094 -31.3071875 120.19742188 -32.109375 119.55859375 C-34 118 -34 118 -35 117 C-35.07205511 115.31391034 -35.08386068 113.62499341 -35.0625 111.9375 C-35.05347656 111.01839844 -35.04445312 110.09929687 -35.03515625 109.15234375 C-35.02355469 108.44207031 -35.01195312 107.73179688 -35 107 C-24.6661915 101.49242075 -14.07651718 96.86193115 -2.54296875 94.58984375 C6.4654547 92.50033232 15.41121126 89.39972888 24 86 C23.54109375 85.21496094 23.0821875 84.42992188 22.609375 83.62109375 C21.34601549 81.4579887 20.08435667 79.29388965 18.82421875 77.12890625 C17.77008264 75.32084839 16.71226125 73.5149073 15.64453125 71.71484375 C13 67.21818592 13 67.21818592 13 65 C12.34 65 11.68 65 11 65 C10.649375 64.195625 10.29875 63.39125 9.9375 62.5625 C7.49685148 57.63404067 3.88809353 52.88809353 0 49 C-3.26171057 48.54698464 -4.65233083 48.76502748 -7.41015625 50.62890625 C-10.29070723 53.26615277 -12.12221597 55.94234976 -14.1875 59.25 C-15.40717792 61.199619 -16.66583405 63.12686635 -18 65 C-18.66 65 -19.32 65 -20 65 C-20.33 66.65 -20.66 68.3 -21 70 C-21.66 70 -22.32 70 -23 70 C-23.23847656 70.67160156 -23.47695312 71.34320313 -23.72265625 72.03515625 C-25.31163084 75.72332664 -27.33172584 79.02539745 -29.4375 82.4375 C-32.16945946 86.88083373 -34.6867914 91.31850641 -37 96 C-37.515625 96.680625 -38.03125 97.36125 -38.5625 98.0625 C-40.09307038 99.95124332 -40.09307038 99.95124332 -40.89453125 102.2578125 C-42.10230501 105.25377427 -43.56401003 107.98456701 -45.125 110.8125 C-47.7656568 115.66457104 -50.30191322 120.5483863 -52.75 125.5 C-55.90944574 131.88220545 -59.18145324 138.19914189 -62.5 144.5 C-66.77998511 152.63277774 -70.95391267 160.80920188 -75.03076172 169.04541016 C-76.76114675 172.53494732 -78.5066356 176.01693459 -80.25 179.5 C-80.88027234 180.76038466 -81.51048291 182.02080021 -82.140625 183.28125 C-84.09375 187.1875 -86.046875 191.09375 -88 195 C-89.32 195 -90.64 195 -92 195 C-93.09762626 173.77922558 -83.16614585 149.26299135 -75.16015625 129.84765625 C-73.57621919 125.95981073 -72.07462525 122.04122318 -70.5625 118.125 C-68.16546771 111.93526766 -65.69845015 105.78370541 -63.1171875 99.66796875 C-62.0255759 97.06107812 -60.97599517 94.44093933 -59.9375 91.8125 C-58.08268211 87.14938354 -56.06214416 82.57435946 -54 78 C-53.71640625 77.35160156 -53.4328125 76.70320313 -53.140625 76.03515625 C-48.4072289 65.21893095 -43.35130856 54.5160301 -38.0078125 43.98828125 C-37.17058822 42.33654807 -36.36270059 40.66998384 -35.5625 39 C-33.71730073 35.45721741 -31.68050483 32.06071905 -29.60546875 28.6484375 C-28.55275683 26.91184703 -27.51316389 25.16722091 -26.48828125 23.4140625 C-23.65965083 18.58831506 -20.68304723 14.0713376 -17.19921875 9.69140625 C-15.80444298 7.89788704 -15.80444298 7.89788704 -15 5 C-10.46615268 1.07435171 -6.03371188 -1.14432467 0 0 Z M28.625 110.6875 C27.73554688 111.05101563 26.84609375 111.41453125 25.9296875 111.7890625 C24.96289062 112.18867187 23.99609375 112.58828125 23 113 C21.97132812 113.42023438 20.94265625 113.84046875 19.8828125 114.2734375 C14.82750802 116.35355032 9.83602589 118.447653 5 121 C5.58265625 121.29003906 6.1653125 121.58007812 6.765625 121.87890625 C8.13449768 122.56573572 9.49997921 123.25944299 10.859375 123.96484375 C14.7426506 125.96264463 18.61348993 127.66598248 22.71875 129.1484375 C28.28082859 131.22469286 33.92398597 133.39058552 39.1875 136.14453125 C41.53213694 137.25115946 43.44131914 137.14214894 46 137 C43.45004871 127.22518671 39.24048093 118.14136463 35 109 C32.51365252 109 30.93005272 109.74384573 28.625 110.6875 Z " fill="#0065F7" transform="translate(106,13)"/>
</svg>
